<svg width="32" height="32" viewBox="0 0 32 32" fill="none" xmlns="http://www.w3.org/2000/svg">
    <rect x="0.5" y="0.5" width="31" height="31" rx="15.5" stroke="#E6E6E6" />
    <path
        d="M19.3161 21.9133L13.9369 16.4477C13.8189 16.3284 13.7527 16.1674 13.7527 15.9997C13.7527 15.832 13.8189 15.671 13.9369 15.5517L19.3149 10.0861C19.4328 9.96616 19.4989 9.80465 19.4989 9.63642C19.4989 9.46819 19.4328 9.30668 19.3149 9.18669C19.2573 9.1276 19.1885 9.08064 19.1124 9.04858C19.0364 9.01652 18.9547 9 18.8722 9C18.7897 9 18.708 9.01652 18.632 9.04858C18.5559 9.08064 18.4871 9.1276 18.4295 9.18669L13.0514 14.6511C12.698 15.011 12.5 15.4953 12.5 15.9997C12.5 16.5041 12.698 16.9884 13.0514 17.3483L18.4295 22.8127C18.4871 22.872 18.556 22.9191 18.6322 22.9513C18.7083 22.9834 18.7901 23 18.8728 23C18.9554 23 19.0373 22.9834 19.1134 22.9513C19.1896 22.9191 19.2585 22.872 19.3161 22.8127C19.434 22.6927 19.5001 22.5312 19.5001 22.363C19.5001 22.1947 19.434 22.0332 19.3161 21.9133Z"
        fill="black" />
</svg>
